<svg version="1" xmlns="http://www.w3.org/2000/svg" width="1153.333" height="1153.333" viewBox="0 0 865.000000 865.000000"><path d="M414.9.5c-.2.2-4.2.6-8.9.9-4.7.4-9.4.8-10.5 1-1.1.2-4.5.7-7.6 1-3.1.4-6.6.8-7.7 1.1-1.1.2-3.7.6-5.8 1-2.2.3-5.4.8-7.3 1.1-1.8.3-4.3.8-5.5 1-1.1.2-3.2.6-4.6.9-1.4.3-3.6.7-5 1-1.4.3-3.4.8-4.5 1-1.1.3-7.2 1.9-13.5 3.5-6.3 1.7-12.2 3.2-13 3.4-.8.2-6.2 2-12 3.9-96.2 31.9-176.3 94.9-231.8 182-3.4 5.3-6.2 9.9-6.2 10.2 0 .2-1.4 2.7-3 5.6-5.4 9.1-23 44.6-23 46.3 0 .2-.8 2.1-1.7 4.2-.9 2.2-1.8 4.3-1.9 4.9-.1.5-1.4 4.1-2.9 8-3.2 8.4-8.5 24.2-9.1 27-.2 1.1-.8 3.1-1.3 4.5s-1.6 5.4-2.5 9c-3.1 12.8-4.6 19.5-5.1 22-1.1 5.6-1.7 8.6-2 10.5-.5 3.7-1.5 10-2 12.4-.2 1.3-.7 4.6-1 7.5-.4 2.8-.8 6.4-1 8.1-1.5 12-2 22.7-2 49 0 16.5.4 33.4.8 37.5 1.5 14.7 1.8 18.1 2.3 20.3.2 1.1.6 3.9.9 6.2.8 5.8 3.4 20.8 3.9 23 .2.5.6 2.1.9 3.5.4 1.4.9 3.6 1.1 5 .5 2.3.8 3.9 2.1 9 1.3 5.2 1.6 6.6 1.9 7.7.1.7.5 1.6.9 1.9.4.4.7 1.5.7 2.5 0 .9 1.5 6.6 3.4 12.6 12.2 38.7 29 74.2 51.2 107.9 6.9 10.5 20.7 29.6 24.5 33.9 1 1.1 5.8 6.7 10.7 12.5 10.4 12.2 31.6 33.3 45.2 45 35.4 30.5 78.5 56.4 122.5 73.8 9.8 3.9 27.1 9.9 35 12.2 6.4 1.8 22.8 6.2 24.8 6.6 1 .2 2.6.5 3.5.8.9.3 3.1.8 4.7 1.1 1.7.2 4.1.7 5.5 1 1.4.3 3.7.7 5.3 1 1.5.3 4.2.8 6 1.1 1.7.3 4.3.7 5.7.9 1.4.2 3.9.6 5.5.9 1.7.2 5.3.7 8 1.1 2.8.3 6.6.8 8.5 1 19.8 2.6 76.3 2.6 92 .1 1.4-.3 5-.7 8-1 3-.3 6.4-.7 7.5-.9 1.1-.3 4.2-.8 6.8-1.1 2.7-.4 5.7-.9 6.7-1.1.9-.2 3.3-.6 5.1-.9 1.9-.3 4.5-.8 5.9-1.1 1.4-.3 3.7-.7 5.3-1 17.4-3.2 56.5-15.5 76.2-24 1.7-.7 5.5-2.3 8.5-3.6 9.4-4 33.9-16.8 47-24.7 68.9-41.1 127.7-104.3 163.1-175.2 6.5-13 11.2-23.2 13.7-29.5.9-2.1 1.2-9.7 1-25l-.3-22h-57c-55.4 0-57.1.1-60.9 2.1-5.4 2.8-7.8 7.5-7.3 14.2.3 4.6.9 5.9 4.1 9l3.6 3.7 39.5.3c21.7.1 39.5.5 39.5.8 0 .3-1.6 3.6-3.7 7.2-2 3.7-5 9.2-6.6 12.2-22.7 41.5-61.2 85.6-103.7 118.6-22.2 17.3-59.8 39.3-83 48.8-2.5 1-6.3 2.6-8.5 3.6-12.5 5.5-50.3 17.3-62.8 19.4-1.5.3-3.5.7-4.5 1-.9.3-3.3.7-5.2 1-1.9.3-4.6.8-6 1.1-1.3.2-4 .7-6 1-2 .3-4.6.7-5.9 1-1.2.2-5 .7-8.4 1.1-3.4.3-7.5.8-9.2 1-19.1 2.3-64.3 2.2-80.5-.1-1.4-.2-5-.6-8-1s-6.4-.8-7.5-1c-1.1-.1-4-.6-6.5-.9-4.1-.6-21.6-4.1-32.9-6.6-2.5-.6-5.9-1.5-7.5-2-1.7-.5-9.4-3-17.1-5.4-25.9-8.3-46.9-17.2-69-29.4-64.6-35.6-117.2-87.5-154.7-152.7-3.4-5.8-15.5-30.2-18-36-5.5-13-14.2-36.3-15.2-41-.2-.6-1-3.5-2-6.6-.9-3.1-1.9-6.5-2.1-7.5-.3-1.1-1.2-4.6-2-7.9-1.3-5.2-2.2-9.5-5-23.5-.2-1.3-.7-4.2-1-6.5-.3-2.2-.8-4.7-1-5.5-.2-.8-.7-4-1-7-.3-3-.8-6.6-1-8-2-12.6-2.7-59.6-1.1-76 1.3-14.2 2.3-22.7 3.2-28.5.3-1.7.7-4.1.9-5.5.2-1.4.8-4.6 1.4-7.3.6-2.6 1.4-6.3 1.7-8.2.3-1.9 1.6-7.9 3-13.3 1.4-5.3 2.7-10.5 2.9-11.5.2-.9.6-2.1.9-2.5.3-.5.7-2.1 1-3.6.6-3.2 8.2-25.7 10.1-30.1.8-1.7 3-6.8 4.9-11.5 24.1-59 68.7-117 121.1-157.5 5-3.8 9.2-7.2 9.5-7.5 1.2-1.3 30.2-20.1 37.7-24.3 8.8-5 30.1-15.6 39.3-19.6 16-6.9 45.1-16.9 53.9-18.6 1.2-.2 3.1-.7 4.1-1 1-.3 2.8-.8 3.9-1 4.5-1 5.7-1.3 9.6-2.3 2.2-.6 5.6-1.3 7.5-1.6 1.9-.3 4.6-.8 6-1.1 1.3-.2 4-.7 6-1 2-.3 4.5-.7 5.5-.9 1.1-.2 4.7-.7 8-1.1 3.3-.4 7.1-.9 8.5-1.1 15-1.9 55.4-2.4 74-1 13.3 1.1 14.2 1.1 15.7-1 3.3-4.5.2-8-7.7-8.9-3-.4-7.1-.9-9-1.2-4.2-.5-67.6-1.3-68.1-.8z"/><path d="M233 185.8c-15.1 15.2-33.5 33.8-40.8 41.2L179 240.6l40.9 40.9c22.5 22.6 41.6 41.1 42.3 41.3.7.1 19.5-18 41.6-40.2 35.2-35.2 40.3-40.6 39.3-42.2-1-1.9-81.4-82.4-82.2-82.4-.2 0-12.8 12.5-27.9 27.8zM425.1 244.2c-17.6 3.8-25.6 25.6-14.9 40.4 1.7 2.4 5.2 5.4 8.1 7l5.2 2.8 27.3.1 27.3.1 2.5 2.5c1.4 1.4 2.7 3.4 2.8 4.5.5 3-2.1 7.1-5.1 8.1-1.5.5-18.2.9-37.1.8-18.9 0-34.8.2-35.3.6-.6.3-.9 4.3-.7 9l.3 8.4h35c19.3.1 37-.3 39.5-.8 14.6-3 22.5-16.1 19.5-32.5-.7-4.1-4.5-10.3-8.1-13.1-4.8-3.8-9.7-4.4-37.7-4.5-25.6-.2-26.8-.3-28.8-2.2-2.6-2.6-3.1-7.1-1.3-10.7.8-1.5 1.6-2.8 1.7-2.9.1-.1 17.1-.5 37.7-.8l37.5-.5.1-7.5c0-4.1-.2-8.1-.4-8.8-.3-1-7.9-1.2-35.6-1.1-19.3.1-37.1.6-39.5 1.1zM510 252v9h36.5c36.2 0 36.4 0 38.5 2.2 1.2 1.4 2 3.5 2 5.8 0 3.3-2.6 7.8-4.8 8.1-.4.1-11.7.2-25.2.3-13.5.1-26.1.6-28 1-11.4 2.7-17.9 10.5-18.5 22.4-.7 14 7.7 24.5 21.6 26.8 2.4.4 14.7.8 27.3.8 17.2.1 23.6-.2 25.4-1.2 2.1-1 2.7-1 3.3 0 .5 1 3.1 1.4 8.6 1.3h7.8l.3-31c.4-37.1 0-39.8-6.8-46.6-7.6-7.6-8.6-7.8-51-7.9h-37v9zm77.5 47.3c-.2 5.8-1.6 10.5-3.3 10.8-3.4.7-49.3.3-51.3-.3-4.9-1.6-6.5-9.2-2.7-12.8 1.2-1.1 2.4-2.1 2.7-2.1.3-.1 11.9-.2 25.8-.3 13.8 0 25.5-.4 25.9-.9 2.1-2.1 3-.4 2.9 5.6zM637.8 243.5c-.2.2-1.5.6-2.8.8-11 1.8-18.9 11.3-19.8 23.8-.7 10.6 4.3 19.6 13.6 24 4.5 2.2 5.7 2.3 31.2 2.4 28.5.1 29.8.3 32.4 5.3 1.6 3.2.8 6.1-2.7 8.8-2.3 1.9-4.4 2-38.5 1.9-31.4 0-36.1.2-36.4 1.5-.2.8-.4 4.9-.3 9v7.5h37c36.5-.1 37.1-.1 42.8-2.4 6.8-2.8 13.3-9.5 14.4-15 2.9-13.5-1.1-25.7-9.9-30.2-5.9-3-6.1-3-34.8-3.3-18.3-.2-27.2-.6-28.7-1.4-4-2.2-4-10.7-.1-14 1.1-.8 11.5-1.2 38.4-1.4l36.8-.3.1-7.5c.1-4.1-.1-8.1-.3-8.8-.3-1-7.9-1.2-36.2-1.2-19.7.1-36 .3-36.2.5zM719.5 251.7l.1 8.8 36.6.3 36.7.2 2 2.6c2.8 3.5 2.6 7.7-.3 11.1l-2.4 2.7-25.8.2c-14.3.1-26.8.4-27.9.7-11.5 2.9-18.2 11.7-18.3 23.8 0 10.5 4.8 18.8 13.4 22.8 6.5 3.1 9 3.3 35.3 3.5 22.5.2 24.5 0 26.8-1.7 1.3-1 2.3-1.5 2.2-1-.4 2.4.7 2.8 8.3 2.8h8.3v-32c.1-19.9-.3-33.3-1-35.5-2.5-8.4-6.9-13-15.2-16.3-3.5-1.4-9.4-1.6-41.5-1.7h-37.4l.1 8.7zm77.5 47.8c0 11.5 1.1 11.1-28.2 11-13.4-.1-25.3-.5-26.6-.9-5.2-1.8-6.1-10.3-1.4-13.4 2.2-1.4 6-1.7 27.8-1.7 18.6 0 25.7-.4 26.6-1.3.7-.7 1.3-1.2 1.5-1.2.2 0 .3 3.4.3 7.5z"/><path d="M168.2 250.7l-4.1 4.8 52.7 52.8c29 29 55.3 54.5 58.4 56.6 5 3.4 6.4 3.9 11.4 3.8 7.1 0 11.4-2.3 16-8.6 2.3-3.2 3.5-6.2 4-9.9.7-6.1-.3-9.2-5.7-17.3-4.3-6.3-5.2-10.2-3.4-13.9 3.6-7.1 9.5-8.2 16.8-3.2 5.9 4.1 9.2 5.4 14.5 5.4 5.9 0 14-4.2 17.3-8.9 6-8.7 5.4-16.7-2-27.6-2.5-3.6-3.8-6.6-3.6-7.9.7-3.2 4.7-8.6 7-9.2 5.4-1.5 6.9-.7 16.3 8.5l9.2 9.1 4-3.8c2.2-2.2 3.9-4.2 3.7-4.6-.9-2.6-16.9-17.4-20.7-19.1-13.1-5.9-28.7 2.4-30.6 16.3-.9 5.9.2 10.2 3.9 15.7 5.6 8.2 6 9.8 3.7 14.2-3.4 6.8-7.6 7.3-16.5 1.9-6.4-3.9-7.6-4.2-14-4.2-5.8 0-7.7.4-11.1 2.6-6.5 4.1-9.6 9-10.7 16.8-.6 3.8 1.2 9 4.8 14 7.1 9.8 7.6 13.6 2.4 18.3-6.4 5.9-4.5 7.4-64.4-52.4-29.7-29.6-54.3-54.1-54.6-54.4-.4-.3-2.5 1.6-4.7 4.2zM164.8 388.2c-.2.7-.4 33.9-.4 73.8l.1 72.5h680l.3-73.8.2-73.7H505.1c-271 0-340 .3-340.3 1.2zM303 460.5v65H173v-130h130v65zm66-42c1.1.4 3.1.8 4.5 1.1 4.4.8 11.9 5.5 16.3 10.2 7.3 7.7 10.6 17.1 10.6 30.2-.1 16-4.7 27.6-14.5 36.4-8 7.2-15.3 9.9-26.9 10-6.7 0-17.2-1.2-20.8-2.5l-3.2-1.1v-82.6l3.3-.6c1.7-.4 5.7-.9 8.7-1.3 3-.3 5.6-.7 5.8-.8.5-.5 14.2.4 16.2 1zm312.5.4c5.2 1.4 11 6.3 13.6 11.3 3.2 6.3 3.6 15.6.9 22.3-2 5-6.2 9.8-10.5 12.2-1.4.8-.9 2.1 4 9.4 5.8 8.6 15.5 27 15.5 29.4 0 .8-1.7 1.4-4.6 1.7l-4.6.3-3.7-8c-2.1-4.4-6.6-12.6-10.1-18.3l-6.4-10.2H661v36h-9v-42.8c0-33.6.3-42.9 1.3-42.9 3.5-.2 13.2-1.5 13.5-1.8.6-.6 10.9.3 14.7 1.4zm-230.9 4.8l-.2 4.8h-27.9l-.3 12.9c-.1 7.6.1 13.2.7 13.5.5.4 7.5.6 15.5.6l14.6-.1v9.6h-31v30.5h34.4l.1 4.8.1 4.7h-44.1v-86h38.3l-.2 4.7zm39.4-3.8c0 .5 1.3 3.8 2.9 7.3 6.3 13.7 11.4 26.8 18.7 47.8 3.8 11.3 4.4 12.2 5.2 9.9.6-1.4 2.8-8 5-14.5 4.4-13 10.3-28.7 13.2-34.9 1-2.2 3.1-6.8 4.6-10.3 2.7-6.2 2.8-6.2 6.9-6.2h4.1l1.7 7.2c.9 4 1.9 8.6 2.2 10.3.3 1.6.7 4.1 1 5.5 1.2 6.4 1.5 7.8 2 11.5.3 2.3.7 5 .9 6.2.3 1.2.8 5 1.1 8.5.4 3.5.8 7.4 1 8.8.6 5.6 1.6 16.9 1.9 22.2l.3 5.8h-9.4l-.2-5.3c-.1-2.8-.4-6.8-.6-8.7-.2-1.9-.6-7.1-1-11.4-.4-4.4-.8-8.7-1-9.5-.1-.9-.6-4.1-1-7.1-.8-6.9-1.4-10.8-2-14-.3-1.4-.7-4.1-1-6-.3-1.9-.8-4.8-1.1-6.4l-.6-2.8-2 4.3c-4.1 9-21.1 56.9-20.1 56.9.2 0-.3 1.6-1.1 3.5-1.6 3.6-1.6 3.8-1.6 5.5 0 .5-1.8 1-3.9 1-3.8 0-4.6-.7-5.6-5-.1-.3-.8-2.5-1.5-5s-1.4-4.7-1.5-5c-1.7-7-20.3-56.5-21.1-55.8-.1.2-.6 1.9-.9 3.8-.3 1.9-.8 4.2-1 5-.2.8-.7 3.3-1 5.5-.3 2.3-.7 5.2-1 6.5-.2 1.3-.7 4.6-1 7.4-.3 2.8-.8 6.2-1 7.6-1.1 7-2.2 20.7-2.4 29.2l-.1 5.8h-9.1l.6-9.8c.6-11 1.2-18 2-23.4.9-5.8 1.5-9.9 2-14.4.3-2.3.8-5.3 1.1-6.5.2-1.3.7-4 1-5.9.2-1.9.8-4.9 1.1-6.5.4-1.7.7-3.2.8-3.5 0-.3.4-2.1.8-4 1-4.7 2.3-10.6 2.6-11.8.3-.7 9.1 0 9.1.7zm124.7 9.9c4 10.1 10.1 26.5 10.7 28.7.3 1.2 7.3 23.5 9.2 29.2.7 2.3 1.6 5.3 1.9 6.8 1.2 5.8 1.6 7.8 1.8 8.8.1.7-1.9 1.4-4.5 1.7-4.5.6-4.8.4-5.3-2-.3-1.4-.7-3.4-1-4.5-1-4.6-6.4-21.7-7-22.3-.3-.4-7.8-.7-16.5-.7h-15.9l-.7 2.5c-.4 1.4-.8 2.9-.9 3.5-.2.5-1.2 4.1-2.3 8-1.1 3.8-2.6 8.9-3.2 11.2-1.1 4.2-1.1 4.3-5.5 4.3-2.5 0-4.5-.5-4.5-1.1 0-1.4 4.8-20.3 5.9-23.1.5-1.3 1.5-4.3 2.2-6.8.7-2.5 1.5-5 1.8-5.5.3-.6.6-1.2.6-1.5.6-3.2 11.5-33.6 15.5-42.8l2.2-5.2h11.3l4.2 10.8zm114.5 27.4l.3 38.3h30.9l.1 4.7.1 4.8H720v-86h9l.2 38.2zm84.6-33.5l-.3 4.8H800c-7.4 0-13.7.3-14 .6-.3.4-.5 6.5-.5 13.5v12.8l15.5.1h15.5v9l-15.5.5-15.5.5v29.9l17 .1h17l.3 4.7.3 4.8H776v-86h38.1l-.3 4.7z"/><path d="M229.8 407.5c-.2.1-3.4.5-7.3.9-7.8.7-9.1.9-17.3 3-11.2 2.9-11.4 3-10.8 7.9.3 2.3.8 5.1 1 6.2.5 2.6 1.6 10.9 3.1 22 1.2 10 1.5 12.1 1.9 14.1.2 1.1.7 4.7 1.1 7.9.4 3.3.9 6.9 1.1 8 .2 1.1.7 4 1 6.5.3 2.5.7 5.2.9 6 .1.8.6 3.9 1 6.8.6 4.3 1 5.2 2.3 4.8 1-.3 3.1-.8 4.7-1.1 1.7-.2 4.1-.7 5.5-1 7.8-1.7 21.5-2.3 31-1.3l5.5.6-3.5-1.5c-1.9-.8-4.3-1.7-5.2-1.9-1-.2-2.8-.7-4-1-3.9-1.1-22.4-1.3-26.9-.3-2.3.6-4.6.6-5 .2-.4-.4-1-2.8-1.3-5.3-.3-2.5-.8-5.6-1-7-.7-3.9-1.6-9.7-2.2-14.8-.3-2.6-.7-5.8-.9-7.2-.2-1.4-.7-4.3-1-6.5-.3-2.2-.8-5.1-1-6.5-.3-1.4-.7-4.8-1.1-7.5-.3-2.8-.8-5.8-1-6.9-.2-1-.6-4.2-1-7.2l-.6-5.3 4.4-1.1c2.3-.6 4.9-1.3 5.6-1.5 6.8-2.3 26.4-2.3 38.7 0 5.5 1 22.2 6.3 25.2 7.9.2.1-1 5.2-2.2 9.8-.8 3-1.6 6.2-2.1 8.8-.3 1.4-1 4.5-1.5 7-.6 2.5-1.3 5.6-1.5 7-.3 1.4-.7 3.2-.9 4-.4 1.3-.8 3.9-2.1 14-.8 6.2-1.7 17-1.9 23-.2 3.6-.3 6.8-.4 7.2-.1.3-1.8.2-3.8-.4-4.3-1.2-20.8-1.5-26.8-.6-12.1 1.9-23.5 5-23.5 6.3 0 .4.4.4.9.1 1.4-.9 16-2 26.1-2 9.2.1 17.9.8 23 1.9 1.4.3 4 .9 5.8 1.2l3.2.6.1-8.9c0-4.9.2-10.1.4-11.6s.6-4.9.9-7.5c.3-2.6.8-5.9 1.1-7.3.3-1.4.9-5 1.5-8 .5-3 1.9-8.7 3.1-12.5 1.1-3.9 2.2-7.7 2.4-8.6.2-.8 2-6.8 4-13.3 2-6.5 3.5-12.3 3.2-12.9-.8-2.1-19.3-10.6-26.8-12.3-1.1-.2-2.9-.6-4.1-.9-3.8-.8-20.5-2.4-21-2z"/><path d="M232.5 444.7c.4 9.8.9 19.4 1 21.3.1 1.9.3 5.9.4 8.9 0 3 .4 5.1.8 4.7 1.2-1.2 1.3-49.9.1-51.3-2.7-3.2-3-.9-2.3 16.4zM211.4 428.9c.3.4.8 2.7 1.1 5.1.3 2.3.7 5.4 1 6.9.8 4.6 1.5 9 2 12.3.3 1.8.8 4.4 1 5.8.7 3.5 1.1 5.4 2.5 14 .7 4.1 1.8 7.9 2.3 8.5.7.7.8.7.5 0-.3-.6-.9-4.4-1.2-8.5-.4-4.1-.8-8.6-1-10-.2-1.4-.6-5.4-1-9-.7-6.4-1.1-9.9-2.2-19-.4-2.5-.6-5.1-.7-5.8 0-.6-1.1-1.2-2.4-1.2-1.3 0-2.2.4-1.9.9zM253.9 433.1c-.1 1.6-.2 3.2-.3 3.6-.3 1.4-2 15.8-3 25.8-.6 6.8-1.5 14.2-2.2 20-.6 4.5.2 4.5 1 0 .3-1.7.8-4 1-5.1.2-1.2.7-3.7 1-5.5.3-1.9.8-4.5 1.1-5.9.2-1.3.7-4 1-6 .3-2 .8-4.7 1-6 .3-1.4.7-4.1 1-6 .3-1.9.7-4.6 1-6 1.7-8.2 1.6-10.7-.5-11.3-1.6-.4-2 0-2.1 2.4zM346 428c-1.2.8-1.5 6.3-1.5 33.5 0 18 .3 33.1.6 33.7 1.1 1.8 20.1 2 25.2.2 12.7-4.3 20.9-19.2 20.1-36.7-.8-17.1-7.5-26.6-21.3-30.3-5.3-1.4-21.1-1.7-23.1-.4zM664.5 426.9l-3 .6-.3 16.3-.2 16.2 3.2.1c10.2.5 14-.3 18.3-3.5 8.6-6.6 7.4-23.3-1.9-28-3.9-1.9-10.9-2.6-16.1-1.7zM601 437.7c-3.3 9.1-10 28.3-10 28.9 0 .2 6.1.4 13.5.4s13.5-.1 13.5-.3c0-.4-2.9-9.6-3.7-11.7-.3-.8-.7-2-.9-2.5-1-3.6-7.3-20.5-8.1-21.9-.8-1.4-1.6 0-4.3 7.1z"/></svg>